<svg xmlns="http://www.w3.org/2000/svg" viewBox="0 0 650 80" fill="none">
  <g stroke="#ca9e51" stroke-linecap="round" stroke-linejoin="round">
    <path d="M5 40H276C280.71 39.65 284.31 35.17 283.96 31C283.62 26.83 279.63 23.73 276 24.07C272.37 24.42 269.77 27.92 270.11 31C270.46 34.08 273.46 36.2 276 35.85C278.54 35.5 280.16 33 279.81 31C279.47 29 277.45 27.88 276 28.23C274.55 28.57 273.92 30.09 274.26 31C274.61 31.91 275.63 32.05 276 31.7" stroke-width="1" opacity="0.44" />
    <path d="M5 40H276C280.71 39.65 284.31 35.17 283.96 31C283.62 26.83 279.63 23.73 276 24.07C272.37 24.42 269.77 27.92 270.11 31C270.46 34.08 273.46 36.2 276 35.85C278.54 35.5 280.16 33 279.81 31C279.47 29 277.45 27.88 276 28.23C274.55 28.57 273.92 30.09 274.26 31C274.61 31.91 275.63 32.05 276 31.7" transform="translate(650 0) scale(-1 1)" stroke-width="1" opacity="0.44" />

    <g transform="translate(293 8)" opacity="0.56">
      <path d="M10 53h44M14 48h36M17 23h30M14 19h36L32 8 14 19Z" stroke-width="1.2" />
      <path d="M20 27v17M28 27v17M36 27v17M44 27v17M17 25h30M18 46h28" stroke-width="0.9" />
    </g>
  </g>
</svg>
